<?xml version="1.0"?>
<svg xmlns="http://www.w3.org/2000/svg" viewBox="0 0 512 512" width="512px" height="512px"><path d="m61 0h-30v31h-31v30h61zm0 0" fill="#FFFFFF"/><path d="m31 512h30v-61h-61v30h31zm0 0" fill="#FFFFFF"/><path d="m451 512h30v-31h31v-30h-61zm0 0" fill="#FFFFFF"/><path d="m512 31h-31v-31h-30v61h61zm0 0" fill="#FFFFFF"/><path d="m31 91h30v30h-30zm0 0" fill="#FFFFFF"/><path d="m31 151h30v30h-30zm0 0" fill="#FFFFFF"/><path d="m31 211h30v30h-30zm0 0" fill="#FFFFFF"/><path d="m31 271h30v30h-30zm0 0" fill="#FFFFFF"/><path d="m31 331h30v30h-30zm0 0" fill="#FFFFFF"/><path d="m31 391h30v30h-30zm0 0" fill="#FFFFFF"/><path d="m451 91h30v30h-30zm0 0" fill="#FFFFFF"/><path d="m451 151h30v30h-30zm0 0" fill="#FFFFFF"/><path d="m451 211h30v30h-30zm0 0" fill="#FFFFFF"/><path d="m451 271h30v30h-30zm0 0" fill="#FFFFFF"/><path d="m451 331h30v30h-30zm0 0" fill="#FFFFFF"/><path d="m451 391h30v30h-30zm0 0" fill="#FFFFFF"/><path d="m91 451h30v30h-30zm0 0" fill="#FFFFFF"/><path d="m151 451h30v30h-30zm0 0" fill="#FFFFFF"/><path d="m211 451h30v30h-30zm0 0" fill="#FFFFFF"/><path d="m271 451h30v30h-30zm0 0" fill="#FFFFFF"/><path d="m331 451h30v30h-30zm0 0" fill="#FFFFFF"/><path d="m391 451h30v30h-30zm0 0" fill="#FFFFFF"/><path d="m91 31h30v30h-30zm0 0" fill="#FFFFFF"/><path d="m151 31h30v30h-30zm0 0" fill="#FFFFFF"/><path d="m211 31h30v30h-30zm0 0" fill="#FFFFFF"/><path d="m271 31h30v30h-30zm0 0" fill="#FFFFFF"/><path d="m331 31h30v30h-30zm0 0" fill="#FFFFFF"/><path d="m391 31h30v30h-30zm0 0" fill="#FFFFFF"/><path d="m391 376c0-45.464844-22.746094-85.554688-57.289062-110.03125-19.234376 21.34375-46.792969 35.03125-77.710938 35.03125s-58.476562-13.6875-77.710938-35.03125c-34.542968 24.476562-57.289062 64.566406-57.289062 110.03125v45h270zm0 0" fill="#FFFFFF"/><path d="m201.625 211h-19.105469c6.96875 34.191406 37.265625 60 73.480469 60 41.351562 0 75-33.648438 75-75v-30c0-13.269531-3.757812-25.5625-9.828125-36.386719-19.277344 47.664063-65.71875 81.386719-119.546875 81.386719zm0 0" fill="#FFFFFF"/><path d="m181 166v15h20.625c46.636719 0 86.253906-32.808594 96.539062-76.957031-12.023437-8.214844-26.535156-13.042969-42.164062-13.042969-41.351562 0-75 33.648438-75 75zm0 0" fill="#FFFFFF"/></svg>
