<?xml version="1.0" encoding="utf-8"?>
<!-- Generator: Adobe Illustrator 16.0.0, SVG Export Plug-In . SVG Version: 6.00 Build 0)  -->
<!DOCTYPE svg PUBLIC "-//W3C//DTD SVG 1.1//EN" "http://www.w3.org/Graphics/SVG/1.1/DTD/svg11.dtd">
<svg version="1.1" id="Capa_1" xmlns="http://www.w3.org/2000/svg" xmlns:xlink="http://www.w3.org/1999/xlink" x="0px" y="0px"
	 width="300px" height="200px" viewBox="0 0 300 200" enable-background="new 0 0 300 200" xml:space="preserve">
<g>
	<g>
		<text transform="matrix(1 0 0 1 99.0566 110.1553)" fill="#D8D8C3" font-family="'HelveticaNeue-Bold'" font-size="27.6122">commodore</text>
	</g>
	<g>
		<path fill-rule="evenodd" clip-rule="evenodd" fill="#D8D8C3" d="M59.048,109.341c-1.827,1.077-4.029,1.737-6.179,1.737
			c-6.606,0-11.997-5.389-11.997-11.995s5.391-11.996,11.997-11.996c2.149,0,4.352,0.652,6.179,1.73V75.931
			c-1.97-0.466-4.126-0.845-6.179-0.845c-13.217,0-23.998,10.781-23.998,23.998c0,13.209,10.781,23.989,23.998,23.989
			c2.052,0,4.208-0.377,6.179-0.844V109.341L59.048,109.341z"/>
		<polygon fill-rule="evenodd" clip-rule="evenodd" fill="#D8D8C3" points="59.048,98.06 69.141,98.06 78.128,89.079 59.048,89.079 
			59.048,98.06 		"/>
		<polygon fill-rule="evenodd" clip-rule="evenodd" fill="#D8D8C3" points="78.128,109.086 69.141,100.106 59.048,100.106 
			59.048,109.086 78.128,109.086 		"/>
	</g>
</g>
</svg>
