<?xml version="1.0" encoding="iso-8859-1"?>
<!-- Generator: Adobe Illustrator 19.0.0, SVG Export Plug-In . SVG Version: 6.00 Build 0)  -->
<svg xmlns="http://www.w3.org/2000/svg" xmlns:xlink="http://www.w3.org/1999/xlink" version="1.1" id="Capa_1" x="0px" y="0px" viewBox="0 0 469.604 469.604" style="enable-background:new 0 0 469.604 469.604;" xml:space="preserve" width="512px" height="512px">
<g>
	<g>
		<path d="M387.548,350.284c-0.277-0.834-0.688-1.618-1.216-2.32L315.42,253.42l-22.688-113.328l115.752-88.504    c12.628-9.598,15.086-27.615,5.488-40.244c-9.154-12.045-26.083-14.923-38.704-6.58l-119.272,78.4l-80.12,45.312L38.588,209.212    c-11.858,7.047-16.292,22.036-10.176,34.4c3.156,6.349,8.759,11.14,15.52,13.272c6.734,2.181,14.066,1.531,20.312-1.8    l111.568-59.12l27.128,67.832l-61.664,92.528c-0.391,0.595-0.706,1.238-0.936,1.912l-23.312,69.952    c-5.494,16.486,3.417,34.304,19.902,39.798c1.559,0.52,3.156,0.916,4.778,1.186c1.732,0.285,3.485,0.43,5.24,0.432    c14.177,0,26.591-9.511,30.28-23.2l17.904-65.48l65.168-65.168l64.952,57.808l30.832,73.984    c6.296,15.526,23.987,23.008,39.513,16.711c14.935-6.057,22.527-22.735,17.287-37.975L387.548,350.284z M388.482,449.366    c-7.08,2.314-14.754-1.177-17.662-8.034l-31.528-75.68c-0.466-1.108-1.171-2.099-2.064-2.904l-72-64    c-3.168-2.815-7.982-2.671-10.976,0.328l-72,72c-0.985,0.984-1.697,2.208-2.064,3.552l-18.4,67.544    c-2.391,8.199-10.976,12.907-19.175,10.516s-12.907-10.976-10.516-19.175c0.029-0.101,0.06-0.201,0.091-0.302l22.976-68.936    l63.408-95.104c1.473-2.189,1.773-4.963,0.8-7.416l-32-80c-1.635-4.104-6.288-6.106-10.393-4.471    c-0.276,0.11-0.545,0.235-0.807,0.375l-119.44,63.28c-2.441,1.317-5.317,1.572-7.952,0.704c-2.637-0.839-4.82-2.713-6.048-5.192    c-2.401-4.83-0.671-10.695,3.968-13.448h0.04l137.128-80.64l80.456-45.504l119.728-78.712c5.892-3.826,13.769-2.152,17.596,3.739    c3.605,5.551,2.351,12.939-2.884,16.989l-119.688,91.536c-2.424,1.855-3.582,4.927-2.984,7.92l24,120    c0.235,1.161,0.727,2.254,1.44,3.2l71.2,94.96l24.928,74.784C400.121,438.806,396.012,446.905,388.482,449.366z" fill="#FFFFFF"/>
	</g>
</g>
<g>
	<g>
		<path d="M377.596,206.772c-6.617-25.692-16.345-50.481-28.968-73.816c-2.212-3.825-7.106-5.132-10.93-2.92    c-3.674,2.125-5.05,6.749-3.134,10.536c11.999,22.188,21.246,45.756,27.536,70.184c0.909,3.535,4.094,6.006,7.744,6.008    c0.675,0.001,1.347-0.085,2-0.256C376.12,215.406,378.694,211.048,377.596,206.772z" fill="#FFFFFF"/>
	</g>
</g>
<g>
	<g>
		<path d="M385.396,247.78C385.396,247.78,385.396,247.78,385.396,247.78c-0.347-2.747-0.723-5.481-1.128-8.201    c-0.663-4.37-4.742-7.375-9.112-6.712c-4.37,0.663-7.375,4.742-6.712,9.112c0.395,2.592,0.752,5.192,1.072,7.8    c0.511,3.99,3.905,6.98,7.928,6.984c0.332,0.003,0.663-0.019,0.992-0.064C382.821,256.159,385.937,252.165,385.396,247.78z" fill="#FFFFFF"/>
	</g>
</g>
<g>
	<g>
		<path d="M435.22,207.068c-1.784-8.216-3.856-16.464-6.168-24.512c-8.175-28.456-19.634-55.864-34.144-81.672    c-2.164-3.852-7.04-5.221-10.893-3.058c-0.001,0.001-0.002,0.001-0.003,0.002c-3.852,2.163-5.221,7.04-3.058,10.893    c0.001,0.001,0.001,0.002,0.002,0.003c13.902,24.727,24.882,50.986,32.72,78.248c2.216,7.712,4.2,15.616,5.912,23.488    c5.555,25.731,8.352,51.98,8.344,78.304c0,4.418,3.582,8,8,8s8-3.582,8-8C443.942,261.299,441.021,233.913,435.22,207.068z" fill="#FFFFFF"/>
	</g>
</g>
<g>
	<g>
		<path d="M183.932,16.764h-36c-4.418,0-8,3.582-8,8v36c0,24.301,19.699,44,44,44s44-19.699,44-44S208.233,16.764,183.932,16.764z     M183.932,88.764c-15.464,0-28-12.536-28-28V56.86c18.721,0.419,36.571,7.988,49.888,21.152    C200.565,84.77,192.493,88.735,183.932,88.764z M211.82,61.876c-15.66-13.221-35.397-20.643-55.888-21.016v-8.096h28    c15.464,0,28,12.536,28,28C211.932,61.148,211.836,61.5,211.82,61.876z" fill="#FFFFFF"/>
	</g>
</g>
<g>
</g>
<g>
</g>
<g>
</g>
<g>
</g>
<g>
</g>
<g>
</g>
<g>
</g>
<g>
</g>
<g>
</g>
<g>
</g>
<g>
</g>
<g>
</g>
<g>
</g>
<g>
</g>
<g>
</g>
</svg>
