<?xml version="1.0" encoding="iso-8859-1"?>
<!-- Generator: Adobe Illustrator 19.0.0, SVG Export Plug-In . SVG Version: 6.00 Build 0)  -->
<svg version="1.1" id="Layer_1" xmlns="http://www.w3.org/2000/svg" xmlns:xlink="http://www.w3.org/1999/xlink" x="0px" y="0px"
	 viewBox="0 0 448 448" style="enable-background:new 0 0 448 448;" xml:space="preserve">
<g>
	<g>
		<g>
			<path style="fill:#FFC855;" d="M312,224H136c-13.255,0-24-10.745-24-24V24c0-13.255,10.745-24,24-24h176
				c13.255,0,24,10.745,24,24v176C336,213.255,325.255,224,312,224z"/>
		</g>
	</g>
	<g>
		<g>
			<path style="fill:#00BEA5;" d="M200,448H24c-13.255,0-24-10.745-24-24V248c0-13.255,10.745-24,24-24h176
				c13.255,0,24,10.745,24,24v176C224,437.255,213.255,448,200,448z"/>
		</g>
	</g>
	<g>
		<g>
			<path style="fill:#E15050;" d="M424,448H248c-13.255,0-24-10.745-24-24V248c0-13.255,10.745-24,24-24h176
				c13.255,0,24,10.745,24,24v176C448,437.255,437.255,448,424,448z"/>
		</g>
	</g>
	<path style="fill:#FFFFFF;" d="M283.141,163.547l-39.227-98.063C240.641,57.289,232.828,52,224,52s-16.641,5.289-19.914,13.484
		l-39.227,98.063c-2.461,6.148,0.531,13.133,6.688,15.594c6.156,2.477,13.133-0.523,15.594-6.688L193.722,156h60.555l6.582,16.453
		C262.734,177.148,267.242,180,272,180c1.484,0,2.992-0.273,4.453-0.859C282.609,176.68,285.602,169.695,283.141,163.547z
		 M203.323,132L224,80.313L244.677,132H203.323z"/>
	<g>
		<g>
			<path style="fill:#FFFFFF;" d="M150.764,322.42C154.015,317.012,156,310.757,156,304c0-19.852-16.148-36-36-36H80
				c-6.625,0-12,5.375-12,12v48v64c0,6.625,5.375,12,12,12h48c24.258,0,44-19.742,44-44C172,344.079,163.467,330.146,150.764,322.42
				z M92,292h28c6.617,0,12,5.383,12,12s-5.383,12-12,12H92V292z M128,380H92v-40h28h8c11.031,0,20,8.969,20,20S139.031,380,128,380
				z"/>
		</g>
	</g>
	<g>
		<g>
			<g>
				<path style="fill:#FFFFFF;" d="M344.023,404.008c-4.563,0-9.164-0.453-13.766-1.359c-26.5-5.234-47.773-26.57-52.945-53.086
					c-3.961-20.344,1.211-41.039,14.188-56.789C304.477,277.031,323.609,268,343.992,268c12.109,0,24,3.227,34.391,9.32
					c5.93,3.477,9.617,10.039,9.617,17.109V304c0,6.625-5.375,12-12,12s-12-5.375-12-12v-7.203
					c-6.164-3.148-13.023-4.797-20.008-4.797c-13.188,0-25.57,5.844-33.977,16.039c-8.516,10.344-11.766,23.461-9.141,36.93
					c3.32,17.055,17,30.766,34.031,34.133c12.188,2.414,24.328-0.086,34.227-6.984c5.43-3.773,12.914-2.469,16.711,2.977
					c3.789,5.438,2.461,12.914-2.977,16.711C371.352,399.836,357.914,404.008,344.023,404.008z"/>
			</g>
		</g>
	</g>
	<g>
		<g>
			<path style="fill:#D24146;" d="M248,424V248c0-13.255,10.745-24,24-24h-24c-13.255,0-24,10.745-24,24v176
				c0,13.255,10.745,24,24,24h24C258.745,448,248,437.255,248,424z"/>
		</g>
	</g>
	<g>
		<g>
			<path style="fill:#00AA9A;" d="M24,424V248c0-13.255,10.745-24,24-24H24c-13.255,0-24,10.745-24,24v176c0,13.255,10.745,24,24,24
				h24C34.745,448,24,437.255,24,424z"/>
		</g>
	</g>
	<g>
		<g>
			<path style="fill:#FFB44B;" d="M136,200V24c0-13.255,10.745-24,24-24h-24c-13.255,0-24,10.745-24,24v176
				c0,13.255,10.745,24,24,24h24C146.745,224,136,213.255,136,200z"/>
		</g>
	</g>
	<g>
		<g>
			<path style="fill:#FFDE99;" d="M320,24v16c0,4.422-3.578,8-8,8s-8-3.578-8-8V24c0-4.422,3.578-8,8-8S320,19.578,320,24z"/>
		</g>
	</g>
	<g>
		<g>
			<path style="fill:#FFD680;" d="M320,72v56c0,4.422-3.578,8-8,8s-8-3.578-8-8V72c0-4.422,3.578-8,8-8S320,67.578,320,72z"/>
		</g>
	</g>
	<g>
		<g>
			<path style="fill:#ED9696;" d="M432,248v16c0,4.422-3.578,8-8,8s-8-3.578-8-8v-16c0-4.422,3.578-8,8-8S432,243.578,432,248z"/>
		</g>
	</g>
	<g>
		<g>
			<path style="fill:#E77373;" d="M432,296v56c0,4.422-3.578,8-8,8s-8-3.578-8-8v-56c0-4.422,3.578-8,8-8S432,291.578,432,296z"/>
		</g>
	</g>
	<g>
		<g>
			<path style="fill:#66D8C9;" d="M208,248v16c0,4.422-3.578,8-8,8s-8-3.578-8-8v-16c0-4.422,3.578-8,8-8S208,243.578,208,248z"/>
		</g>
	</g>
	<g>
		<g>
			<path style="fill:#33CBB7;" d="M208,296v56c0,4.422-3.578,8-8,8s-8-3.578-8-8v-56c0-4.422,3.578-8,8-8S208,291.578,208,296z"/>
		</g>
	</g>
</g>
<g>
</g>
<g>
</g>
<g>
</g>
<g>
</g>
<g>
</g>
<g>
</g>
<g>
</g>
<g>
</g>
<g>
</g>
<g>
</g>
<g>
</g>
<g>
</g>
<g>
</g>
<g>
</g>
<g>
</g>
</svg>
