<?xml version="1.0" encoding="iso-8859-1"?>
<!-- Generator: Adobe Illustrator 19.0.0, SVG Export Plug-In . SVG Version: 6.00 Build 0)  -->
<svg version="1.1" id="Layer_1" xmlns="http://www.w3.org/2000/svg" xmlns:xlink="http://www.w3.org/1999/xlink" x="0px" y="0px"
	 viewBox="0 0 511.999 511.999" style="enable-background:new 0 0 511.999 511.999;" xml:space="preserve">
<g>
	<g>
		<path d="M493.128,330.543h-41.901l11.57-29.505c6.434-16.407-4.266-37.522-24.377-40.419l-84.844-12.226
			c-16.648-2.397-32.096,9.155-34.497,25.807c-0.76,5.277-0.115,10.432,1.645,15.089l-37.282,48.644
			c-6.34,8.272-4.774,20.117,3.498,26.457c8.276,6.343,20.12,4.77,26.457-3.498l39.157-51.091l62.723,9.037l-9.288,23.686
			c-4.843,12.35,4.269,25.761,17.569,25.761h69.571c10.421,0,18.871-8.449,18.871-18.871
			C511.999,338.992,503.551,330.543,493.128,330.543z"/>
	</g>
</g>
<g>
	<g>
		<circle cx="271.549" cy="244.045" r="37.382"/>
	</g>
</g>
<g>
	<g>
		<path d="M254.228,322.476h-53.531c-5.102,0-9.238,4.136-9.238,9.238v27.334c0,5.102,4.136,9.238,9.238,9.238h53.531
			c5.102,0,9.238-4.136,9.238-9.238v-27.334C263.466,326.612,259.329,322.476,254.228,322.476z"/>
	</g>
</g>
<g>
	<g>
		<path d="M131.912,336.39l-35.211-30.351c-5.757-4.963-14.022-5.743-20.606-1.946l-16.367,9.438l2.306-31.073l33.604,10.339
			c9.441,2.904,19.444-2.397,22.348-11.831c2.903-9.439-2.394-19.443-11.831-22.348l-16.837-5.181l27.304-13.184
			c8.893-4.294,12.62-14.983,8.326-23.876c-4.293-8.892-14.983-12.619-23.876-8.326l-52.127,25.168
			c-3.561-1.991-7.599-3.261-11.935-3.583c-15.883-1.181-29.74,10.751-30.92,26.648l-6.01,80.999
			c-1.179,15.897,10.751,29.741,26.648,30.92c6.907,0.513,12.811-0.12,19.929-5.112l36.308-21.68l25.598,22.065
			c7.479,6.447,18.769,5.61,25.218-1.869C140.229,354.127,139.391,342.838,131.912,336.39z"/>
	</g>
</g>
<g>
	<g>
		<circle cx="49.603" cy="179.07" r="35.42"/>
	</g>
</g>
<g>
</g>
<g>
</g>
<g>
</g>
<g>
</g>
<g>
</g>
<g>
</g>
<g>
</g>
<g>
</g>
<g>
</g>
<g>
</g>
<g>
</g>
<g>
</g>
<g>
</g>
<g>
</g>
<g>
</g>
</svg>
