<?xml version="1.0" encoding="utf-8"?>
<!-- Generator: Adobe Illustrator 17.0.0, SVG Export Plug-In . SVG Version: 6.00 Build 0)  -->
<!DOCTYPE svg PUBLIC "-//W3C//DTD SVG 1.1//EN" "http://www.w3.org/Graphics/SVG/1.1/DTD/svg11.dtd">
<svg version="1.1" id="Layer_1" xmlns="http://www.w3.org/2000/svg" xmlns:xlink="http://www.w3.org/1999/xlink" x="0px" y="0px"
	 width="400px" height="400px" viewBox="0 0 400 400" enable-background="new 0 0 400 400" xml:space="preserve">
<g>
	<path fill="#C0D881" d="M240.054,151.212c32.154,0.876,58.712,13.207,78.029,39.256c9.896,13.345,11.757,29.02,10.224,45.214
		c-3.2,0.232-3.144,2.701-2.478,4.58c1.622,4.574,0.462,9.235,1.011,13.802c0.392,3.263-1.629,6.93,1.494,9.771
		c-2.064,18.698-11.231,32.942-27.365,42.442c-12.468,7.342-25.979,11.502-40.336,14.164c-8.257,1.531-16.811,4.192-24.929,4.636
		c-12.456,0.68-24.762,3.15-37.326,2.803c-9.313-0.257-18.54,1.841-27.996,1.915c-12.473,0.097-24.805-2.043-37.252-1.322
		c-9.408,0.545-18.725-1.229-28.054-1.817c-10.983-0.692-22.266-0.437-33.059-3.997c-7.852-2.589-12.658-7.916-16.096-14.981
		c2.439-10.384,0.322-20.916,1.043-31.354c0,0-0.077,0.082-0.077,0.082c0.29-0.131,0.581-0.262,0.871-0.392
		c-0.383-0.332-0.765-0.663-1.148-0.995c0.75-6.364-0.542-12.66,3.953-18.842c5.533-7.61,13.553-9.647,21.184-12.602
		c16.453-6.371,32.922-12.808,43.44-27.897c4.621-6.629,7.365-14.541,9.573-22.529c4.956-17.929,16.749-30.631,34.091-35.88
		c13.182-3.99,27.299-5.749,41.33-6.087C220.139,151.191,230.096,151.202,240.054,151.212z M128.655,218.804
		c-0.429,0.431-0.857,0.862-1.286,1.293c0,0-0.119,0.119-0.119,0.119c-0.429,0.429-0.858,0.858-1.287,1.287l-0.119,0.12
		c-0.429,0.429-0.858,0.858-1.287,1.287l-0.119,0.119c-0.43,0.428-0.86,0.857-1.289,1.285c0,0-0.121,0.117-0.121,0.117
		c-0.431,0.43-0.862,0.859-1.292,1.289l-0.117,0.115c-0.537,0.44-1.074,0.879-1.611,1.319c-6.814,5.95-14.053,11.187-22.176,15.346
		c-8.398,4.3-18.057,5.994-25.434,12.355c-0.46,0.613-0.919,1.226-1.379,1.839c0,0-0.005-0.002-0.005-0.002
		c-0.467,0.47-0.933,0.94-1.4,1.41l-0.016,0.003c-2.472,1.273-3.406,2.764-3.094,6.023c1.151,12.05,6.669,18.656,18.536,20.73
		c10.47,1.83,21.074,2.203,31.66,2.934c17.644,1.22,35.26,2.602,52.965,2.757c16.952,0.148,28.707-8.121,36.818-22.181
		c8.696-15.075,11.3-31.367,8.361-48.532c1.288,0.097,2.575,0.194,3.863,0.29c-0.735,6.629,0.984,13.169,0.665,19.905
		c-0.189,3.996-2.858,8.313-0.509,12.464c-0.086,0.834-0.172,1.669-0.258,2.503c-4.092,2.983-2.004,8.12-4.112,11.795
		c-0.057,0.276-0.062,0.552-0.017,0.83c-0.438,0.604-0.875,1.208-1.313,1.812c-0.072,0.338-0.101,0.679-0.087,1.024
		c-0.757,0.483-2.926-0.088-1.506,2.019c0.016,0.279,0.046,0.557,0.091,0.832c-1.542,1.151-1.659,2.764-1.457,4.482l-0.062-0.061
		c-5.71,0.428-5.792,6.016-5.423,8.738c0.438,3.23,4.433,3.236,7.336,0.732c0.595-0.513,1.788-0.649,2.632-0.512
		c14.208,2.314,27.64-3.119,41.517-4.137c10.041-0.737,19.531-4.25,28.794-7.81c17.045-6.55,30.108-17.455,34.989-36.047
		c2.509-7.133,2.724-14.27,0.028-21.41l0.055,0.072c-0.031-0.482-0.063-0.963-0.094-1.445c-0.073-0.974-0.147-1.948-0.22-2.922
		c-0.391-0.444-0.781-0.887-1.172-1.331l0.075,0.088c-0.046-1.581,0.334-3.305-1.445-4.305l0.041,0.063
		c0.032-1.218,0.069-2.438-1.445-2.879l0.042,0.062c0.095-1.248,0.025-2.413-1.446-2.873l0.037,0.045
		c-0.068-0.891-0.213-1.706-1.436-1.465l0.044,0.056c0.516-1.457,0.066-2.426-1.446-2.857l0.028,0.038
		c0.02-0.997-0.65-1.346-1.465-1.559c-3.101-4.266-6.23-8.407-11.644-2.7c-4.928,1.072-8.592,4.488-12.826,6.857
		c-13.77,7.706-27.912,13.444-43.995,7.252c-1.287-3.654,0.571-4.231,3.751-4.341c5.194-0.179,10.575,1.612,15.562-1.221
		c10.524,0.249,19.804-4.651,27.327-10.46c9.926-7.665,7.827-10.836-1.554-16.152c-16.766-9.501-34.719-14.71-53.94-15.653
		l0.003-0.009c-9.407-2.563-18.815-2.407-28.224-0.012c-13.27,0.85-26.39,2.724-39.337,5.776c-1.619,0.205-2.407,1.343-3.011,2.686
		c-0.88,0.849-1.761,1.697-2.641,2.546c-0.477,0.558-0.954,1.117-1.431,1.675c0,0,0.026-0.026,0.026-0.026
		c-0.541,0.481-1.082,0.961-1.623,1.442c-0.392,0.432-0.784,0.864-1.176,1.296c-0.449,0.52-0.898,1.04-1.347,1.559
		c-0.083,0.341-0.118,0.686-0.104,1.037c-2.198,2.141-6.273,3.266-4.829,7.511c1.511,4.44,5.256,5.543,9.552,5.478
		c3.508-0.054,7.059,0.336,10.518-0.079c11.898-1.429,22.983,0.306,32.852,7.54c-1.265,0.863-2.53,1.726-3.794,2.589
		c-2.556-0.965-5.112-1.93-7.668-2.896c-0.851-0.083-1.702-0.166-2.553-0.249c-1.189-1.533-2.866-1.212-4.468-1.174
		c-0.822-0.051-1.644-0.103-2.467-0.154c-1.16-4.325-3.938-0.892-5.928-1.237c-0.496-0.054-0.992-0.108-1.488-0.162
		c-6.826-2.754-13.857-0.752-20.795-0.896c-2.331,0.965-5.309,0.071-7.133,2.487c-6.07,5.541-8.969,13.346-14.01,19.621
		c-0.881-0.01-1.43,0.396-1.604,1.275l-0.109,0.106c-0.431,0.434-0.862,0.868-1.292,1.301
		C128.765,218.686,128.655,218.804,128.655,218.804z M157.946,294.914c0.064,0.214,0.128,0.428,0.191,0.642c6.62,0,13.24,0,19.86,0
		c-0.008-0.214-0.016-0.428-0.023-0.642C171.298,294.914,164.622,294.914,157.946,294.914z"/>
	<path fill="#64683F" d="M189.235,75.708c-2.395,7.042-0.435,12.938,4.519,18.465c2.998,3.344,4.853,7.601-0.054,11.914
		c1.087-5.873-2.131-9.742-5.067-13.8C184.586,86.689,183.848,81.041,189.235,75.708z"/>
	<path fill="#64683F" d="M159.237,75.708c-2.395,7.042-0.435,12.938,4.519,18.465c2.998,3.344,4.853,7.601-0.054,11.914
		c1.087-5.873-2.131-9.742-5.067-13.8C154.588,86.689,153.85,81.041,159.237,75.708z"/>
	<path fill="#64683F" d="M254.1,75.708c-2.395,7.042-0.435,12.938,4.519,18.465c2.998,3.344,4.853,7.601-0.054,11.914
		c1.087-5.873-2.131-9.742-5.067-13.8C249.451,86.689,248.713,81.041,254.1,75.708z"/>
	<path fill="#64683F" d="M224.102,75.708c-2.395,7.042-0.435,12.938,4.519,18.465c2.998,3.344,4.853,7.601-0.054,11.914
		c1.087-5.873-2.131-9.742-5.067-13.8C219.453,86.689,218.715,81.041,224.102,75.708z"/>
	<path fill="#64683F" d="M328.334,263.835c-3.123-2.84-1.102-6.508-1.494-9.771c-0.549-4.567,0.611-9.228-1.011-13.802
		c-0.666-1.879-0.722-4.348,2.478-4.58C328.316,245.066,328.325,254.451,328.334,263.835z"/>
	<path fill="#64683F" d="M56.611,275.018c0.383,0.332,0.765,0.663,1.148,0.995c-0.29,0.131-0.581,0.262-0.871,0.392
		C56.795,275.943,56.703,275.48,56.611,275.018z"/>
	<path fill="#D4B05C" d="M131.771,216.004c5.042-6.275,7.94-14.08,14.009-19.623c3.592,2.211,6.619,0.424,9.644-1.369
		c6.095-0.073,12.19-0.147,18.286-0.22c0.496,0.054,0.992,0.108,1.488,0.162c1.645,1.999,3.882,1.162,5.929,1.237
		c0.822,0.051,1.644,0.103,2.467,0.153c1.13,1.755,2.208,3.714,4.468,1.175c0.851,0.083,1.702,0.166,2.553,0.248
		c-1.316,10.39,2.2,17.795,12.752,21.07c4.653,1.444,5.278,5.562,5.488,9.6c0.567,10.892-0.523,21.857-6.063,31.189
		c-6.05,10.189-13.369,19.58-26.815,21.579c-8.733,1.298-17.166-0.388-25.706-0.35c-19.178,0.086-38.238-1.488-57.26-3.224
		c-14.863-1.356-24.913-5.469-23.412-19.528c0,0,0.016-0.003,0.016-0.003c0.467-0.47,0.933-0.94,1.4-1.409
		c0,0,0.005,0.002,0.005,0.001c0.459-0.613,0.919-1.226,1.379-1.839c7.377-6.361,17.037-8.054,25.434-12.355
		c8.122-4.159,15.362-9.396,22.178-15.346c0.538-0.44,1.074-0.879,1.609-1.319c0,0,0.117-0.115,0.117-0.115
		c0.431-0.43,0.862-0.859,1.292-1.289c0,0,0.121-0.117,0.12-0.116c0.43-0.428,0.86-0.857,1.289-1.285c0,0,0.119-0.119,0.119-0.119
		c0.429-0.429,0.858-0.858,1.287-1.287c0,0,0.119-0.12,0.119-0.12c0.429-0.429,0.858-0.858,1.287-1.287c0,0,0.119-0.119,0.119-0.119
		c0.428-0.431,0.857-0.862,1.286-1.293c0,0,0.11-0.118,0.11-0.118c0.431-0.434,0.862-0.868,1.293-1.301c0,0,0.109-0.106,0.109-0.106
		C130.701,216.854,131.236,216.429,131.771,216.004z"/>
	<path fill="#D4B05C" d="M213.076,270.458c-0.014-0.345,0.015-0.686,0.087-1.024c0.437-0.604,0.875-1.208,1.313-1.812
		c-0.045-0.278-0.04-0.554,0.017-0.833c3.951-3.032,5.755-6.811,4.111-11.792c0.086-0.834,0.172-1.669,0.257-2.503
		c2.08-0.178,2.334-1.605,2.746-3.355c2.279-9.68,1.135-19.472,1.209-29.224l-0.042,0.12c2.043-0.004,4.261,0.796,5.859-1.267
		c3.728-2.78,7.457-5.559,11.185-8.339c1.265-0.575,1.583-1.756,1.888-2.946c16.081,6.191,30.223,0.453,43.993-7.253
		c4.234-2.369,7.898-5.786,12.829-6.857c2.753-0.109,4.57,0.879,6.369,3.29c4.585,6.148,7.252,13.239,8.867,20.359
		c2.207,9.728,0.928,19.819-4.573,28.331c-9.411,14.563-24.335,21.299-40.42,25.307c-11.666,2.907-23.568,5.187-35.502,6.584
		c-7.585,0.888-15.362,4.597-23.128,0.485c0,0,0.062,0.061,0.062,0.061c1.839-1.054,1.458-2.83,1.457-4.481
		c-0.045-0.276-0.076-0.553-0.091-0.835C212.072,271.801,212.574,271.13,213.076,270.458z"/>
	<path fill="#D4B05C" d="M159.639,170.643c0.88-0.849,1.761-1.697,2.642-2.546c1.872,0.077,2.959-0.724,3.009-2.686
		c12.947-3.052,26.067-4.926,39.337-5.776c9.408,0.004,18.816,0.008,28.224,0.011c0,0-0.003,0.009-0.003,0.01
		c0.18,2.555,1.977,2.643,3.975,2.863c15.188,1.671,29.785,5.412,43.152,13.055c2.242,1.282,6.286,1.341,5.889,4.997
		c-0.343,3.161-3.31,4.975-6.146,6.223c-8.134,3.578-16.466,6.846-25.317,7.774c-4.662,0.489-10.043,2.112-14.189-1.584
		c-10.409-9.279-22.301-9.714-34.793-6.074c-3.698,1.077-6.794,0.863-10.065-0.912c-4.573-2.481-9.587-3.129-14.671-4.099
		c-7.351-1.402-14.328,0.924-21.501,0.39c-3.34-0.248-5.502-0.817-5.199-4.665c-0.014-0.35,0.021-0.696,0.104-1.037
		c0.449-0.52,0.898-1.039,1.347-1.559c0.392-0.432,0.784-0.864,1.179-1.296c0.542-0.481,1.081-0.961,1.621-1.442
		c0,0-0.026,0.026-0.026,0.026C158.685,171.759,159.162,171.201,159.639,170.643z"/>
	<path fill="#BD9D53" d="M69.598,258.103c-1.501,14.058,8.549,18.171,23.412,19.528c19.022,1.736,38.082,3.31,57.26,3.224
		c8.54-0.038,16.973,1.648,25.706,0.35c13.446-1.998,20.766-11.39,26.815-21.579c5.54-9.331,6.63-20.297,6.063-31.189
		c-0.21-4.038-0.835-8.156-5.488-9.6c-10.552-3.274-14.067-10.679-12.752-21.07c2.556,0.966,5.112,1.931,7.666,2.895
		c-1.138,6.767-1.037,12.236,7.148,15.533c3.029,1.22,7.323,0.051,9.415,3.641c2.938,17.164,0.335,33.456-8.361,48.531
		c-8.11,14.06-19.866,22.329-36.818,22.181c-17.705-0.155-35.321-1.538-52.965-2.757c-10.586-0.732-21.189-1.105-31.66-2.934
		c-11.867-2.074-17.385-8.68-18.536-20.73C66.192,260.867,67.126,259.376,69.598,258.103z"/>
	<path fill="#BD9D53" d="M153.984,177.626c-0.303,3.848,1.859,4.417,5.199,4.665c7.173,0.533,14.15-1.792,21.501-0.39
		c5.084,0.969,10.098,1.618,14.671,4.099c3.271,1.775,6.367,1.99,10.065,0.912c12.491-3.64,24.383-3.205,34.793,6.074
		c4.146,3.696,9.527,2.073,14.189,1.584c8.851-0.929,17.182-4.197,25.317-7.774c2.836-1.247,5.803-3.062,6.146-6.223
		c0.397-3.657-3.648-3.716-5.889-4.997c-13.367-7.644-27.964-11.384-43.152-13.055c-1.998-0.22-3.795-0.308-3.975-2.863
		c19.221,0.943,37.174,6.152,53.94,15.653c9.381,5.316,11.48,8.487,1.554,16.152c-7.523,5.809-16.803,10.71-27.327,10.46
		c-7.104-0.085-14.208-0.17-21.312-0.254c-10.5-9.3-28.536-11.021-37.627-3.592c-9.869-7.233-20.954-8.969-32.852-7.54
		c-3.459,0.415-7.01,0.026-10.518,0.079c-4.295,0.066-8.041-1.038-9.552-5.478C147.711,180.892,151.786,179.766,153.984,177.626z"/>
	<path fill="#BD9D53" d="M210.142,277.73c7.766,4.113,15.543,0.403,23.128-0.485c11.933-1.397,23.836-3.677,35.502-6.584
		c16.086-4.008,31.009-10.744,40.42-25.307c5.501-8.512,6.78-18.602,4.573-28.331c-1.615-7.121-4.282-14.211-8.867-20.359
		c-1.798-2.411-3.615-3.399-6.369-3.29c5.41-5.707,8.54-1.566,11.64,2.701c0.044,0.938,0.405,1.578,1.466,1.558
		c0,0-0.028-0.038-0.028-0.038c-0.306,1.351-0.021,2.403,1.446,2.857c0,0-0.044-0.056-0.044-0.056
		c0.036,0.923,0.365,1.557,1.436,1.465c0,0-0.037-0.045-0.037-0.045c-0.243,1.322-0.281,2.542,1.446,2.873
		c0,0-0.042-0.062-0.042-0.062c-0.131,1.267-0.38,2.594,1.445,2.879c0,0-0.041-0.063-0.042-0.063
		c-0.223,1.672-0.748,3.444,1.445,4.305c0,0-0.075-0.088-0.075-0.088c0.391,0.444,0.781,0.887,1.172,1.331
		c0.073,0.974,0.147,1.948,0.22,2.922c-0.921,0.543-1.384,1.057,0.094,1.444c0,0-0.055-0.072-0.055-0.072
		c-0.009,7.137-0.019,14.274-0.028,21.41c-4.882,18.592-17.945,29.497-34.989,36.047c-9.263,3.559-18.753,7.073-28.794,7.81
		c-13.876,1.019-27.309,6.451-41.517,4.137c-0.844-0.138-2.037-0.002-2.632,0.512c-2.903,2.504-6.898,2.498-7.336-0.732
		C204.35,283.746,204.431,278.158,210.142,277.73z"/>
	<path fill="#FDFDFC" d="M202.076,198.075c9.091-7.429,27.127-5.708,37.627,3.593c0.038,2.921,0.076,5.842,0.114,8.762
		c-3.728,2.78-7.457,5.559-11.186,8.339c-1.986,0.273-4.376-1.327-5.858,1.267c0,0,0.042-0.12,0.043-0.119
		c-1.37,0.07-2.74,0.139-4.111,0.209c-1.288-0.097-2.575-0.194-3.863-0.29c-2.091-3.59-6.385-2.421-9.414-3.64
		c-8.185-3.296-8.286-8.766-7.148-15.533C199.547,199.801,200.811,198.938,202.076,198.075z"/>
	<path fill="#BD9D53" d="M218.705,220.125c1.37-0.069,2.741-0.138,4.111-0.209c-0.074,9.751,1.07,19.542-1.21,29.223
		c-0.412,1.75-0.666,3.176-2.746,3.355c-2.348-4.15,0.321-8.467,0.51-12.464C219.689,233.294,217.971,226.754,218.705,220.125z"/>
	<path fill="#64683F" d="M239.818,210.43c-0.038-2.92-0.076-5.841-0.114-8.762c7.104,0.084,14.208,0.168,21.312,0.253
		c-4.986,2.833-10.367,1.042-15.562,1.221c-3.179,0.109-5.037,0.686-3.749,4.341C241.401,208.674,241.082,209.855,239.818,210.43z"
		/>
	<path fill="#64683F" d="M232.851,159.646c-9.408-0.004-18.816-0.007-28.224-0.011C214.037,157.239,223.445,157.083,232.851,159.646
		z"/>
	<path fill="#64683F" d="M157.946,294.914c6.676,0,13.352,0,20.027,0c0.008,0.214,0.016,0.428,0.023,0.642c-6.62,0-13.24,0-19.86,0
		C158.074,295.342,158.01,295.128,157.946,294.914z"/>
	<path fill="#BD9D53" d="M218.604,254.997c1.644,4.981-0.16,8.76-4.111,11.792C216.599,263.117,214.511,257.98,218.604,254.997z"/>
	<path fill="#64683F" d="M319.986,238.694c0.009-7.137,0.019-14.274,0.028-21.41C322.71,224.424,322.496,231.561,319.986,238.694z"
		/>
	<path fill="#64683F" d="M173.71,194.792c-6.095,0.073-12.19,0.147-18.285,0.219c-0.836-0.372-1.673-0.744-2.51-1.115
		C159.853,194.04,166.884,192.038,173.71,194.792z"/>
	<path fill="#BD9D53" d="M152.915,193.896c0.837,0.371,1.674,0.743,2.51,1.115c-3.026,1.794-6.052,3.581-9.645,1.37
		C147.606,193.967,150.584,194.861,152.915,193.896z"/>
	<path fill="#BD9D53" d="M181.126,196.191c-2.047-0.075-4.284,0.762-5.929-1.237C177.188,195.299,179.966,191.866,181.126,196.191z"
		/>
	<path fill="#BD9D53" d="M188.061,197.519c-2.261,2.539-3.338,0.58-4.468-1.175C185.195,196.308,186.872,195.987,188.061,197.519z"
		/>
	<path fill="#BD9D53" d="M165.291,165.411c-0.05,1.962-1.137,2.762-3.009,2.686C162.884,166.754,163.671,165.616,165.291,165.411z"
		/>
	<path fill="#64683F" d="M318.659,211.747c-2.193-0.86-1.669-2.633-1.445-4.305C318.993,208.442,318.613,210.166,318.659,211.747z"
		/>
	<path fill="#BD9D53" d="M211.661,273.31c0,1.652,0.382,3.427-1.457,4.481C210.002,276.074,210.119,274.46,211.661,273.31z"/>
	<path fill="#64683F" d="M315.853,204.688c-1.727-0.331-1.689-1.55-1.446-2.873C315.878,202.275,315.947,203.44,315.853,204.688z"/>
	<path fill="#64683F" d="M313.051,200.453c-1.467-0.454-1.752-1.506-1.446-2.857C313.117,198.027,313.568,198.995,313.051,200.453z"
		/>
	<path fill="#BD9D53" d="M213.076,270.458c-0.502,0.671-1.004,1.343-1.506,2.016C210.15,270.37,212.319,270.941,213.076,270.458z"/>
	<path fill="#64683F" d="M317.255,207.506c-1.825-0.285-1.576-1.612-1.445-2.879C317.325,205.068,317.288,206.288,317.255,207.506z"
		/>
	<path fill="#BD9D53" d="M127.251,220.216c-0.429,0.429-0.858,0.858-1.288,1.287C126.393,221.074,126.822,220.645,127.251,220.216z"
		/>
	<path fill="#64683F" d="M314.444,201.861c-1.071,0.093-1.401-0.542-1.436-1.465C314.231,200.155,314.376,200.97,314.444,201.861z"
		/>
	<path fill="#BD9D53" d="M125.844,221.622c-0.429,0.429-0.858,0.858-1.287,1.287C124.986,222.481,125.415,222.052,125.844,221.622z"
		/>
	<path fill="#BD9D53" d="M124.438,223.029c-0.43,0.428-0.86,0.857-1.289,1.285C123.579,223.886,124.008,223.457,124.438,223.029z"/>
	<path fill="#BD9D53" d="M123.028,224.431c-0.431,0.43-0.862,0.859-1.292,1.289C122.167,225.29,122.597,224.86,123.028,224.431z"/>
	<path fill="#BD9D53" d="M121.619,225.834c-0.536,0.439-1.072,0.879-1.609,1.319C120.545,226.713,121.082,226.274,121.619,225.834z"
		/>
	<path fill="#64683F" d="M311.633,197.633c-1.061,0.019-1.422-0.62-1.466-1.558C310.983,196.287,311.653,196.636,311.633,197.633z"
		/>
	<path fill="#BD9D53" d="M155.435,175.03c-0.449,0.52-0.898,1.039-1.347,1.559C154.537,176.069,154.986,175.549,155.435,175.03z"/>
	<path fill="#BD9D53" d="M71.014,256.691c-0.467,0.47-0.933,0.94-1.4,1.409C70.081,257.631,70.548,257.161,71.014,256.691z"/>
	<path fill="#BD9D53" d="M214.475,267.622c-0.438,0.604-0.875,1.207-1.313,1.812C213.6,268.83,214.038,268.226,214.475,267.622z"/>
	<path fill="#BD9D53" d="M131.771,216.004c-0.535,0.425-1.07,0.85-1.604,1.275C130.341,216.4,130.89,215.993,131.771,216.004z"/>
	<path fill="#64683F" d="M319.756,212.99c-0.39-0.444-0.781-0.887-1.172-1.331C318.975,212.103,319.365,212.546,319.756,212.99z"/>
	<path fill="#BD9D53" d="M158.234,172.292c-0.54,0.48-1.079,0.961-1.621,1.442C157.152,173.253,157.693,172.772,158.234,172.292z"/>
	<path fill="#BD9D53" d="M159.639,170.643c-0.477,0.558-0.954,1.117-1.431,1.675C158.685,171.76,159.162,171.201,159.639,170.643z"
		/>
	<path fill="#64683F" d="M320.07,217.356c-1.478-0.388-1.015-0.901-0.094-1.444C320.007,216.393,320.038,216.874,320.07,217.356z"/>
	<path fill="#BD9D53" d="M130.058,217.385c-0.431,0.434-0.862,0.868-1.293,1.301C129.196,218.252,129.627,217.819,130.058,217.385z"
		/>
	<path fill="#BD9D53" d="M128.655,218.804c-0.429,0.431-0.857,0.862-1.286,1.293C127.798,219.666,128.227,219.235,128.655,218.804z"
		/>
	<path fill="#BD9D53" d="M72.398,254.854c-0.46,0.613-0.919,1.226-1.379,1.839C71.479,256.08,71.938,255.467,72.398,254.854z"/>
	<path fill="#BD9D53" d="M222.773,220.036c1.483-2.594,3.873-0.993,5.858-1.267C227.034,220.831,224.817,220.031,222.773,220.036z"
		/>
</g>
</svg>
