<?xml version="1.0" encoding="utf-8"?>
<!-- Generator: Adobe Illustrator 17.0.0, SVG Export Plug-In . SVG Version: 6.00 Build 0)  -->
<!DOCTYPE svg PUBLIC "-//W3C//DTD SVG 1.1//EN" "http://www.w3.org/Graphics/SVG/1.1/DTD/svg11.dtd">
<svg version="1.1" id="Layer_1" xmlns="http://www.w3.org/2000/svg" xmlns:xlink="http://www.w3.org/1999/xlink" x="0px" y="0px"
	 width="100px" height="100px" viewBox="0 0 100 100" enable-background="new 0 0 100 100" xml:space="preserve">
<g>
	<path fill="#FFFFFF" d="M23.959,72.807h-1.924L15.19,61.948l-0.059,0.02v10.84h-1.924V58.589h1.924l6.846,10.85l0.059-0.02v-10.83
		h1.924V72.807z"/>
	<path fill="#FFFFFF" d="M33.735,71.245c-0.332,0.566-0.758,1.002-1.279,1.309c-0.521,0.306-1.123,0.459-1.807,0.459
		c-1.152,0-2.051-0.368-2.695-1.104c-0.645-0.736-0.967-1.882-0.967-3.438v-6.23h1.924v6.25c0,1.126,0.166,1.9,0.498,2.324
		c0.332,0.423,0.85,0.635,1.553,0.635c0.684,0,1.249-0.139,1.694-0.415c0.446-0.277,0.783-0.669,1.011-1.177v-7.617h1.924v10.566
		h-1.729L33.735,71.245z"/>
	<path fill="#FFFFFF" d="M41.069,59.692v2.549h2.002v1.426h-2.002v6.416c0,0.494,0.103,0.843,0.308,1.045
		c0.205,0.201,0.477,0.303,0.815,0.303c0.111,0,0.234-0.015,0.371-0.044s0.25-0.061,0.342-0.093l0.264,1.318
		c-0.143,0.117-0.355,0.213-0.635,0.288c-0.28,0.074-0.557,0.112-0.83,0.112c-0.781,0-1.403-0.236-1.865-0.708
		c-0.462-0.473-0.693-1.213-0.693-2.222v-6.416h-1.68v-1.426h1.68v-2.549H41.069z"/>
	<path fill="#FFFFFF" d="M50.131,63.94l-0.986-0.059c-0.508,0-0.936,0.12-1.284,0.361c-0.348,0.24-0.617,0.579-0.806,1.016v7.549
		h-1.924V62.241h1.719l0.186,1.543c0.299-0.547,0.669-0.974,1.108-1.279c0.439-0.307,0.946-0.459,1.519-0.459
		c0.143,0,0.28,0.011,0.41,0.034c0.13,0.022,0.238,0.047,0.322,0.073L50.131,63.94z"/>
	<path fill="#FFFFFF" d="M54.213,59.536h-1.924v-1.963h1.924V59.536z M54.213,72.807h-1.924V62.241h1.924V72.807z"/>
	<path fill="#FFFFFF" d="M59.359,71.303h6.934v1.504h-8.856V58.589h1.923V71.303z"/>
	<path fill="#FFFFFF" d="M74.661,72.807c-0.065-0.319-0.115-0.601-0.151-0.845s-0.057-0.49-0.063-0.737
		c-0.358,0.508-0.825,0.933-1.401,1.274s-1.196,0.513-1.86,0.513c-1.101,0-1.938-0.282-2.515-0.845
		c-0.576-0.563-0.864-1.34-0.864-2.329c0-1.01,0.408-1.799,1.226-2.368c0.817-0.57,1.926-0.854,3.325-0.854h2.09v-1.045
		c0-0.619-0.188-1.108-0.566-1.47c-0.378-0.361-0.911-0.542-1.602-0.542c-0.625,0-1.13,0.156-1.514,0.469
		c-0.384,0.313-0.576,0.687-0.576,1.123l-1.826,0.02l-0.02-0.059c-0.046-0.769,0.314-1.472,1.079-2.109
		c0.765-0.639,1.753-0.957,2.964-0.957c1.198,0,2.161,0.304,2.891,0.913c0.729,0.608,1.094,1.485,1.094,2.632v5.088
		c0,0.377,0.02,0.742,0.059,1.094s0.11,0.696,0.215,1.035H74.661z M71.468,71.401c0.696,0,1.325-0.18,1.885-0.537
		c0.56-0.358,0.925-0.769,1.094-1.23v-1.719h-2.158c-0.774,0-1.395,0.195-1.86,0.586s-0.698,0.85-0.698,1.377
		c0,0.469,0.146,0.84,0.439,1.113S70.895,71.401,71.468,71.401z"/>
	<path fill="#FFFFFF" d="M88.187,67.924c0,1.523-0.366,2.752-1.099,3.687c-0.732,0.934-1.74,1.401-3.022,1.401
		c-0.703,0-1.313-0.139-1.831-0.415c-0.518-0.277-0.945-0.686-1.284-1.226l-0.313,1.436h-1.475V57.573h1.924v5.918
		c0.332-0.469,0.744-0.827,1.235-1.074c0.491-0.248,1.066-0.371,1.724-0.371c1.302,0,2.317,0.521,3.047,1.563
		c0.729,1.041,1.094,2.412,1.094,4.111V67.924z M86.263,67.719c0-1.211-0.223-2.199-0.669-2.964
		c-0.446-0.766-1.125-1.147-2.036-1.147c-0.593,0-1.092,0.145-1.499,0.435c-0.407,0.289-0.73,0.679-0.972,1.167v4.58
		c0.247,0.521,0.571,0.928,0.972,1.221s0.906,0.439,1.519,0.439c0.905,0,1.579-0.322,2.021-0.967s0.664-1.498,0.664-2.559V67.719z"
		/>
</g>
<g>
	<g>
		<g>
			<path fill="#FFFFFF" d="M70.512,34.505h-3.864c1.606-3.647,1.433-6.599,0.825-8.596c-1.042-3.56-4.559-7.424-9.769-7.424
				c-1.389,0-2.779,0.26-4.211,0.781c-2.475,0.912-4.125,1.91-4.863,2.431c-0.738-0.521-2.344-1.52-4.863-2.431
				c-1.433-0.521-2.865-0.781-4.211-0.781c-5.21,0-8.727,3.864-9.769,7.424c-0.608,2.127-0.825,5.34,1.216,9.378h-4.689
				c-0.391,0-0.695,0.304-0.695,0.695c0,0.391,0.304,0.695,0.695,0.695h5.514c0.217,0.391,0.478,0.782,0.781,1.172
				c4.515,6.512,14.327,13.589,16.108,14.024v0.043c0,0,0.043,0,0.087-0.043c0.043,0,0.087,0,0.13,0v-0.043
				c1.52-0.738,10.941-6.816,15.89-14.024c0.478-0.651,0.868-1.302,1.216-1.954h4.559c0.391,0,0.695-0.304,0.695-0.695
				S70.903,34.505,70.512,34.505z M63.565,37.066c-4.602,6.73-13.068,12.157-14.892,13.329c-1.867-1.172-10.29-6.643-14.935-13.329
				c-0.087-0.13-0.174-0.261-0.26-0.391h6.382c0.26,0,0.521-0.13,0.651-0.391l2.909-5.731l4.559,11.679
				c0.087,0.26,0.391,0.434,0.651,0.434c0,0,0,0,0.043,0c0.304,0,0.564-0.217,0.651-0.521l3.994-13.676l2.127,6.903
				c0.087,0.26,0.304,0.434,0.564,0.478c0.26,0.043,0.521-0.087,0.695-0.304l1.693-2.475l1.433,2.431
				c0.13,0.217,0.347,0.347,0.608,0.347h3.907C64.086,36.285,63.826,36.675,63.565,37.066z M65.128,34.505h-4.255l-1.78-3.039
				c-0.13-0.217-0.347-0.347-0.608-0.347c-0.261,0-0.478,0.087-0.608,0.304l-1.476,2.171l-2.388-7.772
				c-0.087-0.304-0.391-0.478-0.695-0.521c-0.304,0-0.608,0.217-0.695,0.521l-4.038,13.937l-4.385-11.201
				c-0.087-0.26-0.347-0.434-0.608-0.434c-0.304,0-0.521,0.13-0.651,0.391l-3.43,6.73h-6.903c-1.737-3.169-2.214-6.209-1.433-8.944
				c0.912-3.083,3.907-6.382,8.423-6.382c1.216,0,2.475,0.26,3.734,0.695c3.169,1.172,4.863,2.518,4.906,2.518
				c0.26,0.217,0.608,0.217,0.868,0c0,0,1.693-1.346,4.906-2.518c1.259-0.478,2.518-0.695,3.734-0.695
				c4.472,0,7.511,3.3,8.423,6.382C66.909,28.817,66.518,31.596,65.128,34.505z"/>
		</g>
	</g>
	<g>
	</g>
	<g>
	</g>
	<g>
	</g>
	<g>
	</g>
	<g>
	</g>
	<g>
	</g>
	<g>
	</g>
	<g>
	</g>
	<g>
	</g>
	<g>
	</g>
	<g>
	</g>
	<g>
	</g>
	<g>
	</g>
	<g>
	</g>
	<g>
	</g>
</g>
</svg>
