<?xml version="1.0" encoding="utf-8"?>
<!-- Generator: Adobe Illustrator 16.0.0, SVG Export Plug-In . SVG Version: 6.00 Build 0)  -->
<!DOCTYPE svg PUBLIC "-//W3C//DTD SVG 1.1//EN" "http://www.w3.org/Graphics/SVG/1.1/DTD/svg11.dtd">
<svg version="1.1" id="Capa_1" xmlns="http://www.w3.org/2000/svg" xmlns:xlink="http://www.w3.org/1999/xlink" x="0px" y="0px"
	 width="610px" height="50px" viewBox="0 0 610 50" enable-background="new 0 0 610 50" xml:space="preserve">
<g>
	<g>
		<path fill="none" stroke="#000000" stroke-miterlimit="10" d="M465.5,35.5c0,2.762-2.238,5-5,5h-312c-2.761,0-5-2.238-5-5v-20
			c0-2.761,2.239-5,5-5h312c2.762,0,5,2.239,5,5V35.5z"/>
	</g>
	<g>
		<path d="M259.253,24.947c0-3.006,2.214-5.059,5.029-5.059c1.73,0,2.933,0.821,3.71,1.936l-1.012,0.572
			c-0.557-0.836-1.583-1.422-2.698-1.422c-2.141,0-3.769,1.628-3.769,3.974c0,2.316,1.628,3.974,3.769,3.974
			c1.115,0,2.141-0.602,2.698-1.423l1.026,0.558c-0.821,1.129-1.994,1.95-3.725,1.95C261.467,30.006,259.253,27.953,259.253,24.947z
			"/>
		<path d="M276.5,29.83v-4.487h-5.719v4.487h-1.217v-9.781h1.217v4.208h5.719v-4.208h1.217v9.781H276.5z"/>
		<path d="M279.611,24.947c0-2.889,1.965-5.059,4.854-5.059s4.868,2.17,4.868,5.059c0,2.889-1.979,5.059-4.868,5.059
			S279.611,27.836,279.611,24.947z M288.072,24.947c0-2.288-1.422-3.974-3.607-3.974c-2.2,0-3.593,1.687-3.593,3.974
			c0,2.272,1.393,3.974,3.593,3.974C286.649,28.921,288.072,27.22,288.072,24.947z"/>
		<path d="M290.831,24.947c0-2.889,1.965-5.059,4.854-5.059s4.868,2.17,4.868,5.059c0,2.889-1.979,5.059-4.868,5.059
			S290.831,27.836,290.831,24.947z M299.292,24.947c0-2.288-1.422-3.974-3.607-3.974c-2.2,0-3.593,1.687-3.593,3.974
			c0,2.272,1.393,3.974,3.593,3.974C297.87,28.921,299.292,27.22,299.292,24.947z"/>
		<path d="M301.86,28.452l0.733-0.938c0.63,0.732,1.686,1.407,3.064,1.407c1.745,0,2.303-0.938,2.303-1.701
			c0-2.522-5.792-1.114-5.792-4.604c0-1.613,1.437-2.728,3.373-2.728c1.48,0,2.64,0.513,3.461,1.378l-0.733,0.895
			c-0.733-0.821-1.76-1.173-2.83-1.173c-1.159,0-2.009,0.63-2.009,1.554c0,2.2,5.792,0.938,5.792,4.59
			c0,1.408-0.968,2.874-3.607,2.874C303.928,30.006,302.667,29.361,301.86,28.452z"/>
		<path d="M311.042,29.83v-9.781h6.408v1.085h-5.19v3.153h5.088v1.085h-5.088v3.373h5.19v1.085H311.042z"/>
		<path d="M322.79,24.947c0-2.889,1.965-5.059,4.854-5.059s4.868,2.17,4.868,5.059c0,2.889-1.979,5.059-4.868,5.059
			S322.79,27.836,322.79,24.947z M331.251,24.947c0-2.288-1.423-3.974-3.607-3.974c-2.2,0-3.593,1.687-3.593,3.974
			c0,2.272,1.393,3.974,3.593,3.974C329.828,28.921,331.251,27.22,331.251,24.947z"/>
		<path d="M341.328,29.83l-5.705-7.801v7.801h-1.217v-9.781h1.246l5.631,7.64v-7.64h1.217v9.781H341.328z"/>
		<path d="M344.791,29.83v-9.781h6.408v1.085h-5.191v3.153h5.088v1.085h-5.088v3.373h5.191v1.085H344.791z"/>
	</g>
</g>
</svg>
