<?xml version="1.0" encoding="utf-8"?>
<!-- Generator: Adobe Illustrator 16.0.0, SVG Export Plug-In . SVG Version: 6.00 Build 0)  -->
<!DOCTYPE svg PUBLIC "-//W3C//DTD SVG 1.1//EN" "http://www.w3.org/Graphics/SVG/1.1/DTD/svg11.dtd">
<svg version="1.1" id="Capa_1" xmlns="http://www.w3.org/2000/svg" xmlns:xlink="http://www.w3.org/1999/xlink" x="0px" y="0px"
	 width="200px" height="200px" viewBox="0 0 200 200" enable-background="new 0 0 200 200" xml:space="preserve">
<g>
	<polygon fill="#0061B1" points="45.75,39 55.25,149.125 98.5,161.188 142.5,148.719 153.25,39 	"/>
	<polygon fill="#00A6DE" points="100,48.5 100.062,152.25 135.334,142.333 144.167,48.832 	"/>
	<polygon fill="#FFFFFE" points="67.166,58.417 134,58.5 128,126.542 99.834,135.167 72.5,127.167 70.666,106 85,106 
		85.834,115.917 100.166,119.958 114.834,115.729 116.834,98.698 85.666,99.016 83.834,85.174 117.834,85.004 119.5,71.668 
		67.834,71.834 	"/>
</g>
<g opacity="0.25">
	<path fill="#FFFFFF" d="M195,190.479c0,2.75-2.25,5-5,5H9.5c-2.75,0-5-2.25-5-5V9.022c0-2.75,2.25-5,5-5H190c2.75,0,5,2.25,5,5
		V190.479z"/>
	<path fill="none" stroke="#000000" stroke-miterlimit="10" d="M195,190.479c0,2.75-2.25,5-5,5H9.5c-2.75,0-5-2.25-5-5V9.022
		c0-2.75,2.25-5,5-5H190c2.75,0,5,2.25,5,5V190.479z"/>
</g>
<text transform="matrix(1 0 0 1 73.5 106.5)" font-family="'ProximaNova-Regular'" font-size="22">CSS3</text>
</svg>
