<?xml version="1.0" encoding="utf-8"?>
<!-- Generator: Adobe Illustrator 16.0.0, SVG Export Plug-In . SVG Version: 6.00 Build 0)  -->
<!DOCTYPE svg PUBLIC "-//W3C//DTD SVG 1.1//EN" "http://www.w3.org/Graphics/SVG/1.1/DTD/svg11.dtd">
<svg version="1.1" id="Capa_1" xmlns="http://www.w3.org/2000/svg" xmlns:xlink="http://www.w3.org/1999/xlink" x="0px" y="0px"
	 width="200px" height="200px" viewBox="0 0 200 200" enable-background="new 0 0 200 200" xml:space="preserve">
<g>
	<polygon fill="#FF4F00" points="45.75,39 55.25,149.125 98.5,161.188 142.5,148.719 153.25,39 	"/>
	<polygon fill="#F2804C" points="100,48.5 100.062,152.25 135.334,142.333 144.167,48.833 	"/>
	<polygon fill="#FFFFFF" points="133.5,59.75 66.375,59 70.188,99.375 116.219,99.812 114.984,116.781 100.242,121.266 
		84.996,117.008 84.248,106.754 70.249,106.501 72.25,127.5 99.75,136 127.5,127.875 131.75,87 82,87 81,73 132,73 	"/>
</g>
<g opacity="0.25">
	<path fill="#FFFFFF" d="M195,189.979c0,2.75-2.25,5-5,5H9.5c-2.75,0-5-2.25-5-5V8.522c0-2.75,2.25-5,5-5H190c2.75,0,5,2.25,5,5
		V189.979z"/>
	<path fill="none" stroke="#000000" stroke-miterlimit="10" d="M195,189.979c0,2.75-2.25,5-5,5H9.5c-2.75,0-5-2.25-5-5V8.522
		c0-2.75,2.25-5,5-5H190c2.75,0,5,2.25,5,5V189.979z"/>
</g>
<text transform="matrix(1 0 0 1 64.5 106.375)" font-family="'ProximaNova-Regular'" font-size="22">HTML5</text>
</svg>
