<?xml version="1.0" encoding="utf-8"?>
<!-- Generator: Adobe Illustrator 16.0.0, SVG Export Plug-In . SVG Version: 6.00 Build 0)  -->
<!DOCTYPE svg PUBLIC "-//W3C//DTD SVG 1.1//EN" "http://www.w3.org/Graphics/SVG/1.1/DTD/svg11.dtd">
<svg version="1.1" id="Capa_1" xmlns="http://www.w3.org/2000/svg" xmlns:xlink="http://www.w3.org/1999/xlink" x="0px" y="0px"
	 width="200px" height="200px" viewBox="0 0 200 200" enable-background="new 0 0 200 200" xml:space="preserve">
<g>
	<polygon fill="#FFD900" points="45.75,39 55.25,149.125 98.5,161.188 142.5,148.719 153.25,39 	"/>
	<polygon fill="#FFEB78" points="100,48.5 100.062,152.25 135.334,142.333 144.167,48.832 	"/>
	<polygon fill="#FFFFFF" points="65.25,60.125 132.438,59.188 126.594,127.594 99.109,136.047 71.367,128.023 69.375,110 83,110 
		83.891,117.031 98.633,121.391 113.879,117.57 117.875,74 67,74 	"/>
</g>
<g opacity="0.25">
	<path fill="#FFFFFF" d="M194.5,190.979c0,2.75-2.25,5-5,5H9c-2.75,0-5-2.25-5-5V9.522c0-2.75,2.25-5,5-5h180.5c2.75,0,5,2.25,5,5
		V190.979z"/>
	<path fill="none" d="M194.5,190.979c0,2.75-2.25,5-5,5H9c-2.75,0-5-2.25-5-5V9.522c0-2.75,2.25-5,5-5h180.5c2.75,0,5,2.25,5,5
		V190.979z"/>
</g>
<text transform="matrix(1 0 0 1 37.5 108.8125)" font-family="'ProximaNova-Regular'" font-size="22">JAVASCRIPT</text>
</svg>
