<?xml version="1.0" encoding="utf-8"?>
<!-- Generator: Adobe Illustrator 16.0.0, SVG Export Plug-In . SVG Version: 6.00 Build 0)  -->
<!DOCTYPE svg PUBLIC "-//W3C//DTD SVG 1.1//EN" "http://www.w3.org/Graphics/SVG/1.1/DTD/svg11.dtd">
<svg version="1.1" id="Capa_1" xmlns="http://www.w3.org/2000/svg" xmlns:xlink="http://www.w3.org/1999/xlink" x="0px" y="0px"
	 width="610px" height="50px" viewBox="0 0 610 50" enable-background="new 0 0 610 50" xml:space="preserve">
<g>
	<path fill="none" stroke="#FFD900" stroke-miterlimit="10" d="M413.5,34.5c0,2.762-2.238,5-5,5h-163c-2.761,0-5-2.238-5-5v-20
		c0-2.761,2.239-5,5-5h163c2.762,0,5,2.239,5,5V34.5z"/>
</g>
<g>
	<path fill="#FFD900" d="M304.125,31.332V16.656h5.897c2.948,0,4.599,2.024,4.599,4.423s-1.673,4.422-4.599,4.422h-4.071v5.831
		H304.125z M312.728,21.079c0-1.65-1.188-2.794-2.927-2.794h-3.85v5.589h3.85C311.539,23.874,312.728,22.729,312.728,21.079z"/>
	<path fill="#FFD900" d="M316.793,31.332V16.656h1.826v13.049h6.822v1.627H316.793z"/>
	<path fill="#FFD900" d="M338.354,31.332l-1.299-3.277h-7.305l-1.299,3.277h-2.09l5.918-14.676h2.268l5.896,14.676H338.354z
		 M333.402,18.527l-3.103,7.92h6.227L333.402,18.527z"/>
	<path fill="#FFD900" d="M345.236,31.332v-6.205l-5.787-8.471h2.135l4.555,6.821l4.555-6.821h2.134l-5.765,8.471v6.205H345.236z"/>
</g>
</svg>
