<?xml version="1.0" encoding="utf-8"?>
<!-- Generator: Adobe Illustrator 16.0.0, SVG Export Plug-In . SVG Version: 6.00 Build 0)  -->
<!DOCTYPE svg PUBLIC "-//W3C//DTD SVG 1.1//EN" "http://www.w3.org/Graphics/SVG/1.1/DTD/svg11.dtd">
<svg version="1.1" id="Capa_1" xmlns="http://www.w3.org/2000/svg" xmlns:xlink="http://www.w3.org/1999/xlink" x="0px" y="0px"
	 width="200px" height="50px" viewBox="0 0 200 50" enable-background="new 0 0 200 50" xml:space="preserve">
<g>
	<g>
		<path d="M2.79,33.032V20.48h5.043c2.521,0,3.933,1.731,3.933,3.783c0,2.052-1.43,3.783-3.933,3.783H4.351v4.986H2.79z
			 M10.147,24.263c0-1.411-1.016-2.39-2.503-2.39H4.351v4.78h3.293C9.131,26.652,10.147,25.674,10.147,24.263z"/>
		<path d="M21.347,33.032l-1.11-2.805h-6.248l-1.11,2.805h-1.788l5.062-12.552h1.938l5.043,12.552H21.347z M17.112,22.08
			l-2.653,6.774h5.325L17.112,22.08z"/>
		<path d="M23.758,31.264l0.941-1.205c0.81,0.94,2.164,1.807,3.933,1.807c2.24,0,2.954-1.204,2.954-2.183
			c0-3.237-7.433-1.431-7.433-5.909c0-2.07,1.844-3.5,4.328-3.5c1.9,0,3.387,0.658,4.44,1.769l-0.94,1.148
			c-0.941-1.054-2.258-1.505-3.632-1.505c-1.487,0-2.578,0.809-2.578,1.995c0,2.822,7.433,1.204,7.433,5.889
			c0,1.808-1.242,3.689-4.629,3.689C26.412,33.258,24.793,32.43,23.758,31.264z"/>
		<path d="M44.311,33.032l-1.11-2.805h-6.248l-1.11,2.805h-1.788l5.062-12.552h1.938l5.044,12.552H44.311z M40.077,22.08
			l-2.654,6.774h5.326L40.077,22.08z"/>
		<path d="M47.739,33.032V20.48h5.043c2.521,0,3.933,1.731,3.933,3.783c0,2.052-1.43,3.783-3.933,3.783h-3.481v4.986H47.739z
			 M55.097,24.263c0-1.411-1.016-2.39-2.503-2.39h-3.293v4.78h3.293C54.081,26.652,55.097,25.674,55.097,24.263z"/>
		<path d="M66.296,33.032l-1.11-2.805h-6.248l-1.11,2.805H56.04l5.062-12.552h1.938l5.043,12.552H66.296z M62.062,22.08
			l-2.654,6.774h5.326L62.062,22.08z"/>
		<path d="M69.517,33.032V20.48h1.562v11.16h5.834v1.393H69.517z"/>
		<path d="M87.962,33.032l-1.111-2.805h-6.248l-1.11,2.805h-1.788l5.061-12.552h1.94l5.043,12.552H87.962z M83.727,22.08
			l-2.652,6.774h5.325L83.727,22.08z"/>
		<path d="M91.389,33.032V20.48h5.588c2.183,0,3.521,1.317,3.521,3.2c0,1.58-1.055,2.635-2.202,2.879
			c1.336,0.207,2.445,1.58,2.445,3.086c0,2.014-1.337,3.388-3.631,3.388H91.389z M98.88,23.905c0-1.129-0.754-2.033-2.166-2.033
			h-3.763v4.046h3.763C98.126,25.918,98.88,25.053,98.88,23.905z M99.123,29.475c0-1.147-0.791-2.163-2.314-2.163h-3.857v4.328
			h3.857C98.258,31.64,99.123,30.812,99.123,29.475z"/>
		<path d="M110.493,33.032l-3.182-4.986h-2.521v4.986h-1.562V20.48h5.043c2.296,0,3.952,1.469,3.952,3.783
			c0,2.258-1.562,3.5-3.274,3.651l3.387,5.118H110.493z M110.605,24.263c0-1.43-1.034-2.39-2.521-2.39h-3.294v4.799h3.294
			C109.571,26.672,110.605,25.674,110.605,24.263z"/>
		<path d="M123.649,33.032l-1.11-2.805h-6.247l-1.11,2.805h-1.788l5.062-12.552h1.939l5.042,12.552H123.649z M119.415,22.08
			l-2.653,6.774h5.326L119.415,22.08z"/>
	</g>
</g>
</svg>
